<?xml version="1.0" encoding="UTF-8" standalone="no"?>
<!-- Created with Inkscape (http://www.inkscape.org/) -->

<svg
   width="130mm"
   height="130mm"
   viewBox="0 0 130 130"
   version="1.1"
   id="svg1"
   inkscape:version="1.3 (0e150ed6c4, 2023-07-21)"
   sodipodi:docname="logo.svg"
   inkscape:export-filename="../GameData/OrbitPOInts/UI/toolbar_icon.png"
   inkscape:export-xdpi="12.504615"
   inkscape:export-ydpi="12.504615"
   xmlns:inkscape="http://www.inkscape.org/namespaces/inkscape"
   xmlns:sodipodi="http://sodipodi.sourceforge.net/DTD/sodipodi-0.dtd"
   xmlns="http://www.w3.org/2000/svg"
   xmlns:svg="http://www.w3.org/2000/svg">
  <sodipodi:namedview
     id="namedview1"
     pagecolor="#505050"
     bordercolor="#eeeeee"
     borderopacity="1"
     inkscape:showpageshadow="0"
     inkscape:pageopacity="0"
     inkscape:pagecheckerboard="0"
     inkscape:deskcolor="#505050"
     inkscape:document-units="mm"
     inkscape:zoom="2.1278653"
     inkscape:cx="287.61218"
     inkscape:cy="230.51271"
     inkscape:window-width="2560"
     inkscape:window-height="1367"
     inkscape:window-x="2560"
     inkscape:window-y="44"
     inkscape:window-maximized="1"
     inkscape:current-layer="layer1" />
  <defs
     id="defs1" />
  <g
     inkscape:label="Layer 1"
     inkscape:groupmode="layer"
     id="layer1"
     transform="translate(-25.317091,-31.900452)">
    <g
       id="g1"
       transform="translate(-1.391282,-1.5597383)">
      <path
         id="path1"
         style="fill:#ffffff;stroke-width:0.264583"
         d="M 87.331966,50.726692 A 44.818142,44.818142 0 0 0 42.513513,95.545145 44.818142,44.818142 0 0 0 87.331966,140.36308 44.818142,44.818142 0 0 0 121.77225,124.13461 41.242908,41.242908 0 0 1 90.906942,138.06503 41.242908,41.242908 0 0 1 49.663981,96.82207 41.242908,41.242908 0 0 1 90.906942,55.579109 41.242908,41.242908 0 0 1 132.12665,95.871223 44.818142,44.818142 0 0 0 132.14991,95.545145 44.818142,44.818142 0 0 0 87.331966,50.726692 Z" />
      <path
         id="path1-5"
         style="fill:#ffffff;stroke-width:0.316594"
         d="M 91.301413,44.832457 A 53.628548,53.628548 0 0 0 67.989658,50.061595 49.350491,49.350491 0 0 1 108.50657,50.522548 49.350491,49.350491 0 0 1 132.4431,116.08134 49.350491,49.350491 0 0 1 66.88378,140.01786 49.350491,49.350491 0 0 1 42.674924,75.174274 53.628548,53.628548 0 0 0 42.302853,75.844518 53.628548,53.628548 0 0 0 68.314702,147.08668 53.628548,53.628548 0 0 0 139.55687,121.07483 53.628548,53.628548 0 0 0 113.54502,49.832667 53.628548,53.628548 0 0 0 91.301413,44.832457 Z" />
      <path
         id="path1-5-9"
         style="fill:#ffffff;stroke-width:0.228098"
         d="m 123.3705,78.355057 a 61.417437,24.307389 0 0 0 -26.022887,-3.344924 56.518044,22.36834 0 0 1 39.656057,9.537839 56.518044,22.36834 0 0 1 -14.67218,31.095978 56.518044,22.36834 0 0 1 -78.570657,-5.80699 56.518044,22.36834 0 0 1 13.986456,-30.879948 61.417437,24.307389 0 0 0 -0.75778,0.175454 61.417437,24.307389 0 0 0 -15.94391,33.791774 61.417437,24.307389 0 0 0 85.381631,6.31018 61.417437,24.307389 0 0 0 15.94391,-33.79178 61.417437,24.307389 0 0 0 -19.00064,-7.087583 z" />
      <circle
         style="fill:#ffffff;stroke-width:0.264583"
         id="path2"
         cx="90.523987"
         cy="96.69426"
         r="6.8950992" />
    </g>
  </g>
</svg>
