<?xml version="1.0" encoding="UTF-8" standalone="no"?>
<!-- Created with Inkscape (http://www.inkscape.org/) -->

<svg
   width="130mm"
   height="130mm"
   viewBox="0 0 130 130"
   version="1.1"
   id="svg1"
   inkscape:version="1.3 (0e150ed6c4, 2023-07-21)"
   sodipodi:docname="logo_readme.svg"
   inkscape:export-filename="../GameData/OrbitPOInts/UI/toolbar_icon.png"
   inkscape:export-xdpi="12.504615"
   inkscape:export-ydpi="12.504615"
   xmlns:inkscape="http://www.inkscape.org/namespaces/inkscape"
   xmlns:sodipodi="http://sodipodi.sourceforge.net/DTD/sodipodi-0.dtd"
   xmlns="http://www.w3.org/2000/svg"
   xmlns:svg="http://www.w3.org/2000/svg">
  <sodipodi:namedview
     id="namedview1"
     pagecolor="#505050"
     bordercolor="#eeeeee"
     borderopacity="1"
     inkscape:showpageshadow="0"
     inkscape:pageopacity="0"
     inkscape:pagecheckerboard="0"
     inkscape:deskcolor="#505050"
     inkscape:document-units="mm"
     inkscape:zoom="2.1278653"
     inkscape:cx="287.61219"
     inkscape:cy="192.44639"
     inkscape:window-width="2560"
     inkscape:window-height="1367"
     inkscape:window-x="2560"
     inkscape:window-y="44"
     inkscape:window-maximized="1"
     inkscape:current-layer="layer1" />
  <defs
     id="defs1" />
  <g
     inkscape:label="Layer 1"
     inkscape:groupmode="layer"
     id="layer1"
     transform="translate(-25.317091,-31.900452)">
    <path
       id="path1"
       style="fill:#ffffff;stroke:#000000;stroke-width:0.6;stroke-linecap:round;stroke-linejoin:round;stroke-dasharray:none;stroke-opacity:1"
       d="M 89.910048 43.272884 A 53.628548 53.628548 0 0 0 66.598292 48.502023 A 49.350491 49.350491 0 0 1 107.1152 48.962976 A 49.350491 49.350491 0 0 1 133.85517 80.521257 A 61.417437 24.307389 0 0 0 127.96457 78.435596 A 44.818142 44.818142 0 0 0 85.940781 49.167098 A 44.818142 44.818142 0 0 0 42.731015 82.307711 A 61.417437 24.307389 0 0 0 37.923557 85.012456 A 49.350491 49.350491 0 0 1 41.283558 73.614702 A 53.628548 53.628548 0 0 0 40.911488 74.284945 A 53.628548 53.628548 0 0 0 37.282252 85.464108 A 61.417437 24.307389 0 0 0 37.634685 110.01661 A 53.628548 53.628548 0 0 0 66.923337 145.52711 A 53.628548 53.628548 0 0 0 138.1655 119.51526 A 53.628548 53.628548 0 0 0 141.20304 111.22481 A 61.417437 24.307389 0 0 0 141.64953 84.288469 A 53.628548 53.628548 0 0 0 112.15365 48.273096 A 53.628548 53.628548 0 0 0 89.910048 43.272884 z M 89.515756 54.019515 A 41.242908 41.242908 0 0 1 126.88402 78.109518 A 61.417437 24.307389 0 0 0 121.97941 76.795386 A 61.417437 24.307389 0 0 0 95.95619 73.450371 A 56.518044 22.36834 0 0 1 127.38063 79.2526 A 41.242908 41.242908 0 0 1 130.73546 94.31163 A 44.818142 44.818142 0 0 0 130.75872 93.985551 A 44.818142 44.818142 0 0 0 128.39297 79.65516 A 56.518044 22.36834 0 0 1 134.31457 82.329415 A 49.350491 49.350491 0 0 1 133.00096 109.65798 A 56.518044 22.36834 0 0 1 120.94019 114.08407 A 56.518044 22.36834 0 0 1 52.095818 112.5715 A 41.242908 41.242908 0 0 1 48.272796 95.262476 A 41.242908 41.242908 0 0 1 51.718063 78.884664 A 56.518044 22.36834 0 0 1 56.356023 77.397417 A 61.417437 24.307389 0 0 0 55.598447 77.5726 A 61.417437 24.307389 0 0 0 51.761988 78.766325 A 41.242908 41.242908 0 0 1 89.515756 54.019515 z M 42.587871 82.967619 A 44.818142 44.818142 0 0 0 41.122328 93.985551 A 44.818142 44.818142 0 0 0 43.833273 109.01409 A 56.518044 22.36834 0 0 1 42.369797 108.27719 A 56.518044 22.36834 0 0 1 38.61292 105.76158 A 49.350491 49.350491 0 0 1 37.67551 86.32452 A 56.518044 22.36834 0 0 1 42.587871 82.967619 z M 36.915349 87.096049 A 53.628548 53.628548 0 0 0 36.374297 103.69814 A 56.518044 22.36834 0 0 1 36.915349 87.096049 z M 89.132834 88.239649 A 6.8950992 6.8950992 0 0 0 82.237648 95.134318 A 6.8950992 6.8950992 0 0 0 89.132834 102.0295 A 6.8950992 6.8950992 0 0 0 96.02802 95.134318 A 6.8950992 6.8950992 0 0 0 89.132834 88.239649 z M 142.48668 88.420516 A 56.518044 22.36834 0 0 1 142.87684 102.36695 A 53.628548 53.628548 0 0 0 142.48668 88.420516 z M 40.481023 111.78085 A 61.417437 24.307389 0 0 0 46.192819 114.47216 A 44.818142 44.818142 0 0 0 85.940781 138.80349 A 44.818142 44.818142 0 0 0 120.38106 122.57502 A 41.242908 41.242908 0 0 1 89.515756 136.50544 A 41.242908 41.242908 0 0 1 54.719431 117.37585 A 61.417437 24.307389 0 0 0 125.03607 117.67454 A 61.417437 24.307389 0 0 0 130.16909 116.11185 A 49.350491 49.350491 0 0 1 65.492417 138.45829 A 49.350491 49.350491 0 0 1 40.481023 111.78085 z " />
  </g>
</svg>
