<?xml version="1.0" encoding="UTF-8" standalone="no"?>
<!-- Created with Inkscape (http://www.inkscape.org/) -->

<svg
   width="122.83519mm"
   height="107.25631mm"
   viewBox="0 0 122.83519 107.25631"
   version="1.1"
   id="svg1"
   inkscape:version="1.3 (0e150ed6c4, 2023-07-21)"
   sodipodi:docname="logo.svg"
   inkscape:export-filename="../GameData/OrbitPOInts/UI/toolbar_icon.png"
   inkscape:export-xdpi="96"
   inkscape:export-ydpi="96"
   xmlns:inkscape="http://www.inkscape.org/namespaces/inkscape"
   xmlns:sodipodi="http://sodipodi.sourceforge.net/DTD/sodipodi-0.dtd"
   xmlns="http://www.w3.org/2000/svg"
   xmlns:svg="http://www.w3.org/2000/svg">
  <sodipodi:namedview
     id="namedview1"
     pagecolor="#505050"
     bordercolor="#eeeeee"
     borderopacity="1"
     inkscape:showpageshadow="0"
     inkscape:pageopacity="0"
     inkscape:pagecheckerboard="0"
     inkscape:deskcolor="#505050"
     inkscape:document-units="mm"
     inkscape:zoom="2.072124"
     inkscape:cx="219.09886"
     inkscape:cy="254.08711"
     inkscape:window-width="2560"
     inkscape:window-height="1367"
     inkscape:window-x="2560"
     inkscape:window-y="44"
     inkscape:window-maximized="1"
     inkscape:current-layer="layer1" />
  <defs
     id="defs1" />
  <g
     inkscape:label="Layer 1"
     inkscape:groupmode="layer"
     id="layer1"
     transform="translate(-25.317091,-31.900452)">
    <path
       id="path1"
       style="fill:#ffffff;stroke-width:0.264583"
       d="M 82.35828,37.795109 A 44.818142,44.818142 0 0 0 37.539827,82.613562 44.818142,44.818142 0 0 0 82.35828,127.4315 44.818142,44.818142 0 0 0 116.79856,111.20303 41.242908,41.242908 0 0 1 85.933256,125.13345 41.242908,41.242908 0 0 1 44.690295,83.890487 41.242908,41.242908 0 0 1 85.933256,42.647526 41.242908,41.242908 0 0 1 127.15296,82.93964 44.818142,44.818142 0 0 0 127.17622,82.613562 44.818142,44.818142 0 0 0 82.35828,37.795109 Z" />
    <path
       id="path1-5"
       style="fill:#ffffff;stroke-width:0.316594"
       d="M 86.327727,31.900874 A 53.628548,53.628548 0 0 0 63.015972,37.130012 49.350491,49.350491 45 0 1 103.53288,37.590965 49.350491,49.350491 45 0 1 127.46941,103.14976 49.350491,49.350491 45 0 1 61.910094,127.08628 49.350491,49.350491 45 0 1 37.701238,62.242691 53.628548,53.628548 0 0 0 37.329167,62.912935 53.628548,53.628548 0 0 0 63.341016,134.1551 53.628548,53.628548 0 0 0 134.58318,108.14325 53.628548,53.628548 0 0 0 108.57133,36.901084 53.628548,53.628548 0 0 0 86.327727,31.900874 Z" />
    <path
       id="path1-5-9"
       style="fill:#ffffff;stroke-width:0.228098"
       d="M 118.39681,65.423474 A 61.417437,24.307389 0 0 0 92.373927,62.07855 56.518044,22.36834 0 0 1 132.02998,71.616389 56.518044,22.36834 0 0 1 117.3578,102.71237 56.518044,22.36834 0 0 1 38.787147,96.90538 56.518044,22.36834 0 0 1 52.773603,66.025429 a 61.417437,24.307389 0 0 0 -0.75778,0.175454 61.417437,24.307389 0 0 0 -15.94391,33.791777 61.417437,24.307389 0 0 0 85.381627,6.31018 61.417437,24.307389 0 0 0 15.94391,-33.791783 61.417437,24.307389 0 0 0 -19.00064,-7.087583 z" />
    <circle
       style="fill:#ffffff;stroke-width:0.264583"
       id="path2"
       cx="85.550301"
       cy="83.76268"
       r="6.8950992" />
  </g>
</svg>
